<svg width="16" height="16" viewBox="0 0 16 16" fill="#4A8780" xmlns="http://www.w3.org/2000/svg">
<path d="M6.23912 8.95208C6.11005 8.95208 6.00308 8.95208 5.89611 8.95208C5.40273 8.95192 4.90935 8.95563 4.41613 8.9503C4.12152 8.94708 4.02359 8.86108 4.02085 8.57954C4.01359 7.82156 4.01342 7.06342 4.02117 6.30544C4.02407 6.02471 4.12765 5.93823 4.41855 5.93678C4.95404 5.93404 5.48953 5.93597 6.02502 5.93597C6.08972 5.93597 6.15426 5.93597 6.23928 5.93597C6.23928 5.84756 6.23815 5.77722 6.23944 5.70687C6.25203 5.02166 6.22702 4.33305 6.28526 3.65171C6.43144 1.93601 7.74927 0.694498 9.47255 0.629477C10.1936 0.602211 10.9162 0.618345 11.6382 0.62012C11.8777 0.620765 11.9806 0.7237 11.9819 0.96313C11.9858 1.679 11.9859 2.39503 11.9819 3.1109C11.9804 3.35468 11.8806 3.45165 11.62 3.4581C11.1329 3.47004 10.6455 3.47037 10.1583 3.47763C9.59243 3.48602 9.36946 3.69947 9.35929 4.26545C9.34977 4.79981 9.35719 5.3345 9.35719 5.88838C9.43254 5.89193 9.49579 5.89758 9.55903 5.89758C10.1787 5.89822 10.7985 5.89741 11.4182 5.89822C11.8222 5.8987 11.9104 5.98567 11.9107 6.38176C11.9114 7.09166 11.9119 7.80172 11.9104 8.51162C11.9098 8.84414 11.8275 8.9282 11.4943 8.92965C10.8565 8.93223 10.2188 8.93062 9.58113 8.93078C9.51563 8.93078 9.45029 8.93078 9.358 8.93078C9.358 9.01952 9.358 9.09551 9.358 9.1715C9.358 11.0547 9.35816 12.9378 9.358 14.821C9.358 15.3278 9.29879 15.3859 8.7854 15.386C8.09357 15.3862 7.40158 15.3867 6.70975 15.3859C6.32754 15.3854 6.23944 15.2986 6.23944 14.9212C6.2388 13.0137 6.23912 11.1065 6.23912 9.19925C6.23912 9.12778 6.23912 9.0563 6.23912 8.95208Z" fill="#4A8780"/>
</svg>
