<svg width="16" height="16" viewBox="0 0 16 16" fill="#4A8780" xmlns="http://www.w3.org/2000/svg">
<path d="M3.91113 7.9896C3.91113 9.45042 4.69053 10.8002 5.95564 11.5305C7.22066 12.261 8.77942 12.261 10.0445 11.5305C11.3097 10.8001 12.089 9.45033 12.089 7.9896C11.865 2.55309 4.13539 2.5515 3.91126 7.9896H3.91113ZM5.1698 7.9896C5.1698 6.97842 5.70923 6.04417 6.58497 5.53858C7.46059 5.03299 8.53945 5.03299 9.41507 5.53858C10.2908 6.04417 10.8302 6.97842 10.8302 7.9896C10.6756 11.7531 5.33342 11.755 5.16993 7.9896H5.1698Z" fill="#4A8780"/>
<path d="M12.2506 0H3.74937C2.75521 0.000992064 1.80206 0.39619 1.09921 1.09921C0.39619 1.8021 0.000984127 2.75521 0 3.74937V12.2506C0.000992064 13.2448 0.39619 14.1979 1.09921 14.9008C1.8021 15.6038 2.75521 15.999 3.74937 16H12.2506C13.2448 15.999 14.1979 15.6038 14.9008 14.9008C15.6038 14.1979 15.999 13.2448 16 12.2506V3.74937C15.999 2.75521 15.6038 1.80206 14.9008 1.09921C14.1979 0.39619 13.2448 0.000984127 12.2506 0ZM14.7556 12.2505C14.7561 12.915 14.4923 13.5524 14.0224 14.0223C13.5526 14.4921 12.9152 14.7559 12.2506 14.7554H3.74937C3.08479 14.7559 2.4474 14.4922 1.97756 14.0223C1.50771 13.5524 1.24394 12.915 1.24441 12.2505V3.74921C1.24392 3.08464 1.50768 2.44724 1.97756 1.9774C2.44743 1.50756 3.08483 1.24378 3.74937 1.24425H12.2506C12.9152 1.24376 13.5526 1.50752 14.0224 1.9774C14.4923 2.44727 14.7561 3.08467 14.7556 3.74921V12.2505Z" fill="#4A8780"/>
<path d="M12.4445 2.84473C12.2558 2.84473 12.075 2.91963 11.9416 3.05294C11.8083 3.18637 11.7334 3.36717 11.7334 3.55579C11.7334 3.74442 11.8083 3.92522 11.9416 4.05865C12.075 4.19196 12.2558 4.26686 12.4445 4.26686C12.6331 4.26686 12.8139 4.19196 12.9473 4.05865C13.0806 3.92522 13.1555 3.74442 13.1555 3.55579C13.1555 3.36717 13.0806 3.18636 12.9473 3.05294C12.8139 2.91963 12.6331 2.84473 12.4445 2.84473Z" fill="#4A8780"/>
</svg>
