<svg width="107" height="29" viewBox="0 0 107 29" fill="none" xmlns="http://www.w3.org/2000/svg">
<path d="M17.6 28V23H6.32V1.32H0.64V28H17.6ZM19.2038 14.68C19.2038 22.72 25.0838 28.48 33.1238 28.48C41.2038 28.48 47.0838 22.72 47.0838 14.68C47.0838 6.64 41.2038 0.879999 33.1238 0.879999C25.0838 0.879999 19.2038 6.64 19.2038 14.68ZM41.2438 14.68C41.2438 19.64 38.0437 23.44 33.1238 23.44C28.2038 23.44 25.0438 19.64 25.0438 14.68C25.0438 9.68 28.2038 5.92 33.1238 5.92C38.0437 5.92 41.2438 9.68 41.2438 14.68ZM49.7897 14.68C49.7897 23.08 56.1897 28.52 63.9897 28.52C68.8297 28.52 72.6297 26.52 75.3497 23.48V13.28H62.6297V18.16H69.7497V21.4C68.5897 22.44 66.4297 23.44 63.9897 23.44C59.1497 23.44 55.6297 19.72 55.6297 14.68C55.6297 9.64 59.1497 5.92 63.9897 5.92C66.7897 5.92 69.0697 7.4 70.3097 9.28L75.0297 6.72C72.9897 3.56 69.5097 0.879999 63.9897 0.879999C56.1897 0.879999 49.7897 6.24 49.7897 14.68ZM78.5788 14.68C78.5788 22.72 84.4588 28.48 92.4988 28.48C100.579 28.48 106.459 22.72 106.459 14.68C106.459 6.64 100.579 0.879999 92.4988 0.879999C84.4588 0.879999 78.5788 6.64 78.5788 14.68ZM100.619 14.68C100.619 19.64 97.4187 23.44 92.4988 23.44C87.5788 23.44 84.4188 19.64 84.4188 14.68C84.4188 9.68 87.5788 5.92 92.4988 5.92C97.4187 5.92 100.619 9.68 100.619 14.68Z" fill="#66B5AC"/>
</svg>
