<svg width="88" height="87" viewBox="0 0 88 87" fill="none" xmlns="http://www.w3.org/2000/svg">
<g filter="url(#filter0_d_194_772)">
<ellipse cx="44" cy="39.5" rx="40" ry="39.5" fill="#4A8780"/>
<path d="M57.6504 31.7294C57.4937 32.2859 57.0955 32.5831 56.5834 32.8063C55.4513 33.2998 54.4345 33.9696 53.6346 34.9286C52.7195 36.0254 52.2532 37.3191 52.0367 38.7101C51.9482 39.2801 51.9124 39.8584 51.8488 40.4682C51.9921 40.4682 52.0847 40.4682 52.1775 40.4682C53.3829 40.4682 54.5882 40.4669 55.7935 40.4687C56.7054 40.4701 57.2301 40.9935 57.2307 41.9048C57.232 44.6191 57.232 47.3332 57.2307 50.0476C57.2301 50.9691 56.7016 51.4955 55.7736 51.496C53.0682 51.4976 50.3624 51.4976 47.657 51.496C46.7265 51.4955 46.2004 50.9718 46.2007 50.0484C46.2013 47.6549 46.1878 45.2615 46.2107 42.8684C46.2295 40.8817 46.3617 38.9032 46.8008 36.9556C47.3309 34.6044 48.5363 32.6523 50.2841 31.0194C51.5896 29.7995 53.087 28.8742 54.7209 28.1629C55.4532 27.8442 56.1457 28.0816 56.4935 28.7937C56.8922 29.6097 57.2657 30.4382 57.6501 31.2612C57.6504 31.4171 57.6504 31.5732 57.6504 31.7294Z" fill="white"/>
<path d="M36.7171 40.4683C36.8455 40.4683 36.9395 40.4683 37.0337 40.4683C38.2393 40.4683 39.4452 40.4651 40.6508 40.4694C41.4945 40.4724 42.0308 41.0084 42.0319 41.8565C42.0354 44.6061 42.0357 47.356 42.0317 50.1056C42.0306 50.9485 41.4932 51.4924 40.6465 51.4942C37.8969 51.5004 35.147 51.4999 32.3974 51.4945C31.5356 51.4929 31.0041 50.9504 31.0041 50.0892C31.0041 47.6085 30.9888 45.1273 31.0173 42.6469C31.0383 40.8251 31.1945 39.0137 31.562 37.2217C32.0573 34.806 33.2255 32.7824 35.0029 31.0887C36.3445 29.8105 37.8848 28.8461 39.5836 28.1259C40.293 27.8252 40.969 28.0731 41.3123 28.7634C41.6633 29.4688 42.0031 30.1804 42.3305 30.8971C42.6665 31.632 42.3954 32.3452 41.6458 32.6855C40.7574 33.0888 39.9131 33.5578 39.1719 34.1997C37.9976 35.2165 37.3404 36.5285 36.9928 38.0154C36.807 38.8102 36.7098 39.6162 36.7171 40.4683Z" fill="white"/>
</g>
<defs>
<filter id="filter0_d_194_772" x="0" y="0" width="88" height="87" filterUnits="userSpaceOnUse" color-interpolation-filters="sRGB">
<feFlood flood-opacity="0" result="BackgroundImageFix"/>
<feColorMatrix in="SourceAlpha" type="matrix" values="0 0 0 0 0 0 0 0 0 0 0 0 0 0 0 0 0 0 127 0" result="hardAlpha"/>
<feOffset dy="4"/>
<feGaussianBlur stdDeviation="2"/>
<feComposite in2="hardAlpha" operator="out"/>
<feColorMatrix type="matrix" values="0 0 0 0 0 0 0 0 0 0 0 0 0 0 0 0 0 0 0.25 0"/>
<feBlend mode="normal" in2="BackgroundImageFix" result="effect1_dropShadow_194_772"/>
<feBlend mode="normal" in="SourceGraphic" in2="effect1_dropShadow_194_772" result="shape"/>
</filter>
</defs>
</svg>
